<svg width="1440" height="624" viewBox="0 0 1440 624" fill="none" xmlns="http://www.w3.org/2000/svg">
<g opacity="0.4">
<path d="M356.5 495.075C495 560.233 593.5 581.003 840 581.003L317.5 673.319L-15 542.272C63 446.242 181 412.51 356.5 495.075Z" fill="#B7EE81"/>
<path d="M356.5 495.075C495 560.233 593.5 581.003 840 581.003L317.5 673.319L-15 542.272C63 446.242 181 412.51 356.5 495.075Z" fill="white" fill-opacity="0.85"/>
</g>
<path d="M1445 285.506C1453 219.717 1485 94.5055 1512.5 89.7305L1460 693.503H-20V431.939C63.6667 491.184 293.823 600.656 520.5 600.656C718.5 600.656 791.5 571.137 855.5 543.356C958.5 498.644 993.5 477.784 1146 543.356C1332.5 623.546 1419.57 494.6 1445 285.506Z" fill="#B7EE81"/>
<path d="M1445 285.506C1453 219.717 1485 94.5055 1512.5 89.7305L1460 693.503H-20V431.939C63.6667 491.184 293.823 600.656 520.5 600.656C718.5 600.656 791.5 571.137 855.5 543.356C958.5 498.644 993.5 477.784 1146 543.356C1332.5 623.546 1419.57 494.6 1445 285.506Z" fill="white" fill-opacity="0.65"/>
</svg>
